#!OML:ASF I:\AllaLogoMonkeySwing\Project 1\Capture day 1\Session 1\Subject1.ASF
:FULLY-SPECIFIED
:DEGREES
303
root 16.3569 14.0022 5.18385 -159.634 47.6446 -162.342
lowerback 28.6826 0.603845 3.93531
upperback 2.4984 3.76459 6.92532
thorax -12.7255 1.99397 3.83588
lowerneck -11.6587 9.6213 8.78387
upperneck -6.08358 12.3253 -16.0636
head 1.69858 6.11768 -5.54128
rclavicle -7.63333e-014 -1.11319e-013
rhumerus -20.3188 1.55933 -86.583
rradius 56.3093
rwrist -17.2287
rhand -9.62527 -24.2766
rfingers 7.12502
rthumb 16.3445 -53.6079
lclavicle -7.63333e-014 -1.11319e-013
lhumerus -43.5674 -5.15286 103.907
lradius 85.5297
lwrist 39.0724
lhand -26.9731 -33.6119
lfingers 7.12502
lthumb -0.394154 -3.63255
rfemur -41.5495 1.98791 10.4807
rtibia 70.8946
rfoot -36.5589 -1.02809
rtoes -22.7085
lfemur -57.6265 8.06782 -20.6429
ltibia 98.2547
lfoot -22.1714 -5.21287
ltoes -13.1046
304
root 16.5287 14.0548 5.08661 -159.339 45.5814 -162.996
lowerback 28.4096 0.545313 3.98663
upperback 2.71275 3.61901 6.49401
thorax -12.9978 1.96176 3.73174
lowerneck -12.4502 9.82985 9.12513
upperneck -6.12757 12.5237 -15.6782
head 1.81754 6.19705 -5.42758
rclavicle 4.8901e-014 5.1684e-014
rhumerus -16.4337 8.32378 -87.8458
rradius 59.7259
rwrist -15.6748
rhand -7.86654 -23.4289
rfingers 7.12502
rthumb 18.0372 -52.6126
lclavicle 4.8901e-014 5.1684e-014
lhumerus -43.5259 -7.34042 102.392
lradius 90.1065
lwrist 32.8884
lhand -34.0667 -41.0411
lfingers 7.12502
lthumb -7.24391 -11.185
rfemur -40.8313 1.70711 10.8664
rtibia 70.6832
rfoot -37.0605 -3.09463
rtoes -23.3249
lfemur -57.104 8.05202 -19.7201
ltibia 97.5979
lfoot -23.5005 -8.87592
ltoes -12.6652
305
root 16.7222 14.1445 4.93639 -158.787 43.5041 -163.667
lowerback 27.3196 0.66429 4.12697
upperback 2.46922 3.67482 6.28995
thorax -12.6804 1.95982 3.40272
lowerneck -12.6935 9.66 9.30064
upperneck -6.77008 12.2504 -15.5544
head 1.63169 6.09607 -5.45345
rclavicle 6.16232e-015 1.59028e-014
rhumerus -14.3434 14.2068 -87.5138
rradius 65.9777
rwrist -15.6658
rhand -4.489 -23.2147
rfingers 7.12502
rthumb 21.2843 -52.0659
lclavicle 6.16232e-015 1.59028e-014
lhumerus -42.7154 -7.47353 100.187
lradius 95.2995
lwrist 31.4574
lhand -33.1387 -39.9521
lfingers 7.12502
lthumb -6.34813 -10.0672
rfemur -39.8028 1.75048 11.1933
rtibia 69.6871
rfoot -37.432 -5.35409
rtoes -24.3037
lfemur -55.5171 8.52244 -19.379
ltibia 95.4834
lfoot -26.382 -10.8042
ltoes -14.9935
306
root 16.9128 14.3035 4.71494 -159.538 40.3031 -164.875
lowerback 26.9803 0.605195 4.59556
upperback 2.20447 3.7333 6.27611
thorax -12.7836 1.95985 3.10153
lowerneck -13.9782 9.00787 8.69984
upperneck -6.30688 11.4429 -14.6282
head 1.76099 5.67214 -5.09857
rclavicle 5.56597e-015 -3.02153e-014
rhumerus -14.2955 17.7517 -85.7528
rradius 74.3304
rwrist -15.4793
rhand -3.18388 -23.1843
rfingers 7.12502
rthumb 22.5375 -51.8889
lclavicle 5.56597e-015 -3.02153e-014
lhumerus -41.3315 -7.16385 98.1402
lradius 101.043
lwrist 35.7515
lhand -25.4153 -30.7508
lfingers 7.12502
lthumb 1.1105 -0.773932
rfemur -36.5481 0.995074 11.4703
rtibia 67.4374
rfoot -37.383 -7.62546
rtoes -24.8552
lfemur -52.0445 8.61452 -20.1217
ltibia 92.0506
lfoot -29.3611 -9.98177
ltoes -13.8055
307
root 17.1172 14.5285 4.44484 -160.838 36.9167 -167.448
lowerback 25.973 0.760568 4.12747
upperback 1.68488 3.63566 5.94781
thorax -12.8422 1.90125 3.04982
lowerneck -14.8469 8.45289 8.89955
upperneck -5.71293 10.6856 -14.4293
head 1.98059 5.25609 -5.09819
rclavicle -3.06128e-014 -4.92986e-014
rhumerus -15.4133 19.4466 -83.6838
rradius 83.9061
rwrist -16.1879
rhand -2.60874 -23.1979
rfingers 7.12502
rthumb 23.0894 -51.8344
lclavicle -3.06128e-014 -4.92986e-014
lhumerus -39.4258 -6.10257 94.7622
lradius 108.726
lwrist 36.4583
lhand -25.6022 -28.3084
lfingers 7.12502
lthumb 0.929913 1.66928
rfemur -32.8545 -0.0411008 10.5777
rtibia 64.1604
rfoot -36.6449 -9.36565
rtoes -25.0154
lfemur -48.322 8.41704 -22.1863
ltibia 87.7033
lfoot -30.4312 -9.86967
ltoes -6.69344
308
root 17.3122 14.8102 4.0931 -162.158 32.1286 -168.385
lowerback 25.6458 0.450496 5.34307
upperback 1.08686 3.68197 6.24662
thorax -13.3255 1.86589 2.69389
lowerneck -15.3928 7.67748 9.10336
upperneck -4.9043 9.6668 -14.6204
head 2.21528 4.70251 -5.25426
rclavicle -1.66979e-014 -3.97569e-015
rhumerus -18.1687 19.6576 -81.0761
rradius 93.9286
rwrist -17.2742
rhand -0.824579 -23.166
rfingers 7.12502
rthumb 24.8003 -51.5779
lclavicle -1.66979e-014 -3.97569e-015
lhumerus -37.7214 -5.12527 91.1723
lradius 115.91
lwrist 33.1158
lhand -24.5414 -27.5542
lfingers 7.12502
lthumb 1.95448 2.41656
rfemur -26.8306 -1.21923 11.2971
rtibia 59.5975
rfoot -35.2652 -10.416
rtoes -22.7826
lfemur -42.9912 7.87278 -22.4047
ltibia 82.8484
lfoot -31.5411 -8.94802
ltoes -3.80066
309
root 17.5024 15.1427 3.6703 -163.545 27.8294 -169.639
lowerback 24.7098 0.546562 5.72588
upperback 0.492514 3.96578 6.65759
thorax -13.5291 1.99652 2.86735
lowerneck -16.883 7.13489 8.30642
upperneck -2.91007 9.11135 -13.9295
head 2.89413 4.32764 -4.89493
rclavicle 2.38542e-014 6.04305e-014
rhumerus -22.4012 18.5603 -78.2081
rradius 103.363
rwrist -16.1847
rhand 0.0371294 -21.9105
rfingers 7.12502
rthumb 25.6259 -50.2062
lclavicle 2.38542e-014 6.04305e-014
lhumerus -35.6981 -4.75378 87.2378
lradius 121.823
lwrist 27.4533
lhand -23.6447 -27.6895
lfingers 7.12502
lthumb 2.82054 2.27155
rfemur -20.5127 -1.50621 11.5076
rtibia 54.315
rfoot -31.9809 -12.6246
rtoes -24.6945
lfemur -38.1515 6.6904 -22.417
ltibia 77.798
lfoot -30.2038 -10.2278
ltoes -3.61483
310
root 17.684 15.5342 3.17842 -165.287 23.3087 -170.804
lowerback 23.7931 0.450846 5.86536
upperback -0.225708 3.96073 7.13775
thorax -13.903 2.01893 3.37096
lowerneck -16.6517 6.47137 8.11287
upperneck -2.42169 8.34567 -14.2052
head 2.93462 3.93687 -5.02436
rclavicle -6.95746e-014 -1.74931e-014
rhumerus -28.1466 17.286 -75.719
rradius 111.363
rwrist -13.3321
rhand -0.767653 -20.7657
rfingers 7.12502
rthumb 24.8549 -49.1701
lclavicle -6.95746e-014 -1.74931e-014
lhumerus -35.158 -4.85764 82.2963
lradius 126.527
lwrist 21.8148
lhand -24.4399 -30.3444
lfingers 7.12502
lthumb 2.05254 -0.374557
rfemur -13.5861 -0.880221 11.9799
rtibia 48.906
rfoot -27.2369 -13.3891
rtoes -22.6216
lfemur -32.5672 4.81706 -21.9865
ltibia 72.2456
lfoot -27.3787 -12.7286
ltoes -3.48514
311
root 17.8412 15.9759 2.6352 -166.421 19.0809 -171.45
lowerback 22.1362 0.405181 6.06251
upperback -0.992666 3.99074 7.7079
thorax -13.9105 2.07704 3.93801
lowerneck -17.7537 5.71582 6.67987
upperneck -0.448447 7.58453 -12.7079
head 3.4797 3.4907 -4.35955
rclavicle -1.43125e-014 -7.63333e-014
rhumerus -33.8807 16.0009 -73.1255
rradius 117.784
rwrist -9.55922
rhand -2.25342 -20.8293
rfingers 7.12502
rthumb 23.4303 -49.4229
lclavicle -1.43125e-014 -7.63333e-014
lhumerus -34.056 -5.59453 76.6536
lradius 130.105
lwrist 20.9654
lhand -23.1913 -30.3632
lfingers 7.12502
lthumb 3.25832 -0.408308
rfemur -7.73393 0.475037 13.1831
rtibia 44.0446
rfoot -18.9575 -13.9249
rtoes -18.4394
lfemur -27.4337 2.75 -21.2175
ltibia 66.3374
lfoot -22.8923 -15.7512
ltoes -4.99408
312
root 17.9624 16.4582 2.01875 -167.746 16.067 -171.975
lowerback 20.1142 0.431851 6.1235
upperback -1.47265 3.95819 8.08275
thorax -13.3331 2.11125 4.36353
lowerneck -18.3481 5.16337 6.06142
upperneck 1.16569 7.01772 -12.3323
head 3.9704 3.13366 -4.17791
rclavicle 1.70955e-014 3.81667e-014
rhumerus -38.9735 14.943 -70.8403
rradius 121.905
rwrist -4.91687
rhand -2.5096 -21.0241
rfingers 7.12502
rthumb 23.1845 -49.6488
lclavicle 1.70955e-014 3.81667e-014
lhumerus -34.3386 -6.59808 70.3933
lradius 132.308
lwrist 21.5271
lhand -21.9659 -30.33
lfingers 7.12502
lthumb 4.4417 -0.396592
rfemur -2.99267 1.91255 14.1915
rtibia 40.2021
rfoot -7.74061 -14.4725
rtoes -20.6174
lfemur -21.4118 1.33173 -20.8711
ltibia 59.5634
lfoot -17.638 -18.2212
ltoes -10.6456
313
root 18.0568 16.9544 1.37094 -169.058 13.4275 -173.108
lowerback 17.6002 0.438566 5.60723
upperback -2.07187 3.62743 8.19532
thorax -12.5757 2.01377 4.90795
lowerneck -18.0896 4.55721 5.28232
upperneck 2.79022 6.41611 -11.9199
head 4.33277 2.77395 -3.97987
rclavicle 3.57812e-015 6.36111e-015
rhumerus -43.5786 14.4012 -69.0124
rradius 123.393
rwrist -2.63346
rhand -2.95859 -21.5077
rfingers 7.12502
rthumb 22.7537 -50.1859
lclavicle 3.57812e-015 6.36111e-015
lhumerus -35.7884 -8.237 64.2145
lradius 132.805
lwrist 20.6323
lhand -20.3003 -31.4861
lfingers 7.12502
lthumb 6.04991 -1.59244
rfemur -0.250999 2.28536 14.1858
rtibia 38.1813
rfoot 4.79068 -13.6917
rtoes -7.1401
lfemur -15.0381 -0.128114 -21.401
ltibia 51.8886
lfoot -12.1714 -20.7438
ltoes -21.2751
314
root 18.1158 17.4643 0.699445 -170.133 13.2325 -173.363
lowerback 15.1336 0.971932 5.09386
upperback -2.37474 4.01834 8.3439
thorax -11.5308 2.25833 5.27921
lowerneck -17.5596 4.31347 4.68632
upperneck 4.6924 6.25615 -11.4133
head 4.78384 2.6303 -3.74227
rclavicle -7.15625e-015 -4.13472e-014
rhumerus -46.9289 14.6811 -67.7033
rradius 122.455
rwrist -3.29563
rhand -3.50888 -22.2285
rfingers 7.12502
rthumb 22.2255 -50.9707
lclavicle -7.15625e-015 -4.13472e-014
lhumerus -38.3767 -9.24464 58.7561
lradius 132.155
lwrist 17.3258
lhand -17.2258 -31.7584
lfingers 7.12502
lthumb 9.01748 -1.97116
rfemur 0.537753 2.88391 14.0325
rtibia 38.114
rfoot 15.8836 -10.0523
rtoes 5.38681
lfemur -8.5705 0.0432623 -21.5755
ltibia 43.1939
lfoot -3.4355 -24.2183
ltoes -25.6689
315
root 18.1094 17.9762 0.0548019 -169.719 14.7521 -173.062
lowerback 11.7662 1.97684 5.25238
upperback -2.65437 5.07095 8.35549
thorax -9.91388 2.78114 5.02718
lowerneck -16.4182 3.85263 4.41121
upperneck 5.54892 5.81657 -11.7461
head 4.83671 2.38798 -3.85866
rclavicle 1.05356e-014 1.44715e-013
rhumerus -48.6476 15.3533 -66.7309
rradius 119.152
rwrist -5.01487
rhand -4.43586 -22.522
rfingers 7.12502
rthumb 21.3354 -51.3675
lclavicle 1.05356e-014 1.44715e-013
lhumerus -40.8704 -11.5108 53.8203
lradius 130.058
lwrist 13.7075
lhand -16.2486 -32.1044
lfingers 7.12502
lthumb 9.96035 -2.36002
rfemur -1.70054 3.3525 13.5292
rtibia 40.2061
rfoot 17.7525 -6.45448
rtoes 26.3949
lfemur -4.22557 0.423659 -21.7973
ltibia 34.5425
lfoot 8.69754 -28.0805
ltoes -37.1236
316
root 18.1664 18.4068 -0.571273 -172.495 12.3698 -174.052
lowerback 10.3428 1.40395 4.95715
upperback -2.28811 3.99681 8.15291
thorax -8.60301 2.26593 5.21225
lowerneck -15.5975 3.55091 3.45164
upperneck 7.04848 5.57857 -10.7418
head 5.08481 2.25967 -3.4175
rclavicle -5.42682e-014 3.33958e-014
rhumerus -49.171 16.0983 -66.1993
rradius 114.955
rwrist -6.01641
rhand -3.02466 -24.7435
rfingers 7.12502
rthumb 22.6903 -53.4295
lclavicle -5.42682e-014 3.33958e-014
lhumerus -43.7015 -13.6587 50.2048
lradius 127.33
lwrist 13.1425
lhand -15.7493 -31.4235
lfingers 7.12502
lthumb 10.442 -1.70284
rfemur 0.299574 -0.0721671 13.3981
rtibia 44.0081
rfoot 16.8776 -4.81848
rtoes 5.85923
lfemur 2.01119 -3.70064 -22.5977
ltibia 26.7064
lfoot 26.0508 -25.8367
ltoes -37.4839
